<svg xmlns="http://www.w3.org/2000/svg" width="25" height="25" viewBox="0 0 25 25"><g fill="#98A2AB" fill-rule="evenodd"><path d="M16.286 6c-3.105 0-5.672 2.09-6.192 5.046a3.212 3.212 0 0 0-.38-.023C7.604 11.023 6 12.58 6 14.651c0 .912.406 1.74 1.064 2.347L4.286 17C1.82 16.822 0 14.946 0 12.814c0-2.583 1.999-4.535 4.643-4.535.16 0 .318.01.475.028C5.757 4.67 8.917 2 12.858 2c3.254 0 6.108 2.156 7.114 5.233C19.233 6.41 18.004 6 16.286 6zm5.93 10.993L9.467 17C8.049 16.882 7 15.832 7 14.651c0-1.508 1.146-2.628 2.714-2.628.088 0 .175.005.262.016l.94.112.163-.932C11.511 8.759 13.648 7 16.286 7c2.145 0 4.062 1.421 4.74 3.497l.226.69h.725c1.682 0 3.023 1.303 3.023 2.906 0 1.523-1.216 2.792-2.783 2.9z"/><circle cx="6" cy="23" r="1"/><circle cx="4" cy="20" r="1"/><circle cx="7.5" cy="19.5" r="1"/><circle cx="2.5" cy="23.5" r="1"/><circle cx="13" cy="23" r="1"/><circle cx="11" cy="20" r="1"/><circle cx="14.5" cy="19.5" r="1"/><circle cx="9.5" cy="23.5" r="1"/><circle cx="20" cy="23" r="1"/><circle cx="18" cy="20" r="1"/><circle cx="21.5" cy="19.5" r="1"/><circle cx="16.5" cy="23.5" r="1"/></g></svg>