<?xml version="1.0" encoding="UTF-8"?>
<svg width="19px" height="20px" viewBox="0 0 19 20" version="1.1" xmlns="http://www.w3.org/2000/svg" xmlns:xlink="http://www.w3.org/1999/xlink">
    <!-- Generator: Sketch 46.2 (44496) - http://www.bohemiancoding.com/sketch -->
    <title>Slice 1</title>
    <desc>Created with Sketch.</desc>
    <defs></defs>
    <g id="Page-1" stroke="none" stroke-width="1" fill="none" fill-rule="evenodd">
        <g id="breakdownOn" fill="#FFFFFF">
            <path d="M13.8999996,7 C14.7284267,7 15.3999996,6.32842712 15.3999996,5.5 C15.3999996,4.67157288 14.7284267,4 13.8999996,4 C13.0715725,4 12.3999996,4.67157288 12.3999996,5.5 C12.3999996,6.32842712 13.0715725,7 13.8999996,7 Z M18.559,2.998 C18.5044159,2.16043006 17.8366393,1.49350958 16.999,1.44 L10.01,1.002 C9.55318765,0.975611701 9.10647996,1.14339947 8.78,1.464 L0.464,9.777 C-0.164,10.407 -0.153,11.439 0.489,12.081 L7.916,19.511 C8.242,19.835 8.668,19.998 9.091,19.998 C9.501,19.998 9.911,19.843 10.221,19.534 L18.534,11.22 C18.856,10.9 19.024,10.45 18.996,9.988 L18.559,2.998 Z" id="Shape"></path>
        </g>
    </g>
</svg>