<?xml version="1.0" encoding="UTF-8"?>
<svg width="19px" height="20px" viewBox="0 0 19 20" version="1.1" xmlns="http://www.w3.org/2000/svg" xmlns:xlink="http://www.w3.org/1999/xlink">
    <!-- Generator: Sketch 46.2 (44496) - http://www.bohemiancoding.com/sketch -->
    <title>Slice 1</title>
    <desc>Created with Sketch.</desc>
    <defs>
        <polygon id="path-1" points="0 0.0023234164 18.9989011 0.0023234164 18.9989011 19.0008 0 19.0008"></polygon>
    </defs>
    <g id="Page-1" stroke="none" stroke-width="1" fill="none" fill-rule="evenodd">
        <g id="breakdownOff">
            <mask id="mask-2" fill="white">
                <use xlink:href="#path-1"></use>
            </mask>
            <g id="a"></g>
            <path d="M14.1499996,6.5 C13.1835013,6.5 12.3999996,5.71649831 12.3999996,4.75 C12.3999996,3.78350169 13.1835013,3 14.1499996,3 C15.1164979,3 15.8999996,3.78350169 15.8999996,4.75 C15.8999996,5.71649831 15.1164979,6.5 14.1499996,6.5 Z M14.1810428,4.00000066 C13.7502372,3.99944831 13.4005526,4.3482567 13.4000003,4.77908601 C13.399448,5.20991531 13.7482371,5.55961923 14.1790426,5.56017158 C14.457725,5.56052888 14.7154287,5.4121756 14.8550792,5.17099497 C14.9947298,4.92981434 14.995111,4.63244744 14.8560793,4.39090951 C14.7170475,4.14937157 14.4597251,4.00035796 14.1810428,4.00000066 Z M9.48648145,1.17104677 L1.17002913,9.4859577 C0.930016079,9.72498389 0.942016731,10.1250277 1.19403044,10.3760552 L8.62243446,17.8048691 C8.87644827,18.0568967 9.27446992,18.0678979 9.51248287,17.8298718 L17.8269351,9.51496088 C17.9473551,9.39211665 18.0092645,9.22349537 17.9969443,9.05191015 L17.5599206,2.06114429 C17.5342756,1.7282341 17.2697785,1.46372244 16.9368867,1.43807603 L9.94650647,1.00102815 C9.75045563,0.997462758 9.59865336,1.05969793 9.48648145,1.17104677 Z M7.91639606,18.5099463 L0.487992038,11.0841328 C-0.153042827,10.4430626 -0.164043426,9.40894927 0.463990732,8.78088046 L8.77744289,0.464969421 C9.10451905,0.14331921 9.55261295,-0.0245889826 10.01051,0.00291880157 L17.0008901,0.439966682 C17.8377947,0.494445121 18.5044995,1.1611867 18.5589749,1.99813738 L18.9969987,8.98890325 C19.0250002,9.45095387 18.855991,9.89900295 18.5349736,10.2210382 L10.2215214,18.5359492 C9.91150457,18.844983 9.50148227,19 9.09145997,19 C8.66843696,19 8.24141373,18.835982 7.91639606,18.5099463 Z" id="Shape" fill="#B0B0B0" fill-rule="nonzero" mask="url(#mask-2)"></path>
        </g>
    </g>
</svg>