<svg xmlns="http://www.w3.org/2000/svg" width="26" height="26" viewBox="0 0 26 26"><g fill="none" fill-rule="evenodd"><path d="M0 0h26v26H0z"/><path stroke="#62707F" d="M20.5 23.5h-14a1 1 0 0 1-1-1v-19a1 1 0 0 1 1-1h14a1 1 0 0 1 1 1v19a1 1 0 0 1-1 1z"/><path fill="#00AEEF" d="M9.462 16.896h8.075"/><path stroke="#62707F" d="M9.462 16.896h8.075"/><path fill="#00AEEF" d="M9.462 14.722h8.075"/><path stroke="#62707F" d="M9.462 14.722h8.075"/><path fill="#00AEEF" d="M9.484 19.07h6.058"/><path stroke="#62707F" d="M9.484 19.07h6.058"/><text fill="#62707F" font-family="DIN-Bold, DIN" font-size="6" font-weight="bold" transform="translate(5 2)"><tspan x="2.721" y="7.688">1</tspan></text><text fill="#62707F" font-family="DIN-Bold, DIN" font-size="6" font-weight="bold" transform="translate(5 2)"><tspan x="5.352" y="7.688">:</tspan></text><text fill="#62707F" font-family="DIN-Bold, DIN" font-size="6" font-weight="bold" transform="translate(5 2)"><tspan x="7.398" y="7.688">0</tspan></text><text fill="#62707F" font-family="DIN-Bold, DIN" font-size="6" font-weight="bold" transform="translate(5 2)"><tspan x="10.9" y="7.688">0</tspan></text></g></svg>