<svg width="17" height="22" viewBox="0 0 17 22" xmlns="http://www.w3.org/2000/svg"><title>icon/side nav script/write/active copy 6</title><path d="M13.939 5.98c0-.816-.623-1.271-1.345-1.271s-1.351.455-1.351 1.271v1.799c0 .815.629 1.271 1.351 1.271s1.345-.456 1.345-1.271V5.98zm-9.476 7.242h8.075v-1H4.463v1zm0 2.174h8.075v-1H4.463v1zm.021 2.175h6.058v-1H4.484v1zM4.265 5.584v3.43h.81V4.745h-.81l-.902.755v.84l.902-.756zm1.666 3.43h.922v-.888h-.922v.888zm0-1.625h.922v-.888h-.922v.888zm1.81.39c0 .815.629 1.271 1.351 1.271s1.345-.456 1.345-1.271V5.98c0-.816-.623-1.271-1.345-1.271s-1.351.455-1.351 1.271v1.799zM17 1.5v19c0 .827-.673 1.5-1.5 1.5h-14C.672 22 0 21.327 0 20.5v-19C0 .673.672 0 1.5 0h14c.827 0 1.5.673 1.5 1.5zm-4.406 3.91c-.317 0-.542.222-.542.582v1.781c0 .36.225.576.542.576.318 0 .535-.216.535-.576V5.992c0-.36-.217-.582-.535-.582zm-2.967.582v1.781c0 .36-.217.576-.535.576-.317 0-.542-.216-.542-.576V5.992c0-.36.225-.582.542-.582.318 0 .535.222.535.582z" fill="#FFF" fill-rule="evenodd"/></svg>