<svg width="17" height="22" viewBox="0 0 17 22" xmlns="http://www.w3.org/2000/svg"><title>icon/side nav script/write/active copy 6</title><path d="M13.13 5.992c0-.36-.218-.582-.535-.582-.318 0-.542.222-.542.582v1.781c0 .36.224.576.542.576.317 0 .535-.216.535-.576V5.992zm-.535 3.059c-.723 0-1.352-.456-1.352-1.272V5.98c0-.816.629-1.271 1.352-1.271.722 0 1.345.455 1.345 1.271v1.799c0 .816-.623 1.272-1.345 1.272zM9.628 5.992c0-.36-.218-.582-.535-.582-.317 0-.542.222-.542.582v1.781c0 .36.225.576.542.576.317 0 .535-.216.535-.576V5.992zm-.535 3.059c-.723 0-1.352-.456-1.352-1.272V5.98c0-.816.629-1.271 1.352-1.271.722 0 1.345.455 1.345 1.271v1.799c0 .816-.623 1.272-1.345 1.272zm-3.161-.036h.922v-.888h-.922v.888zm0-1.625h.922v-.888h-.922v.888zM4.266 9.014v-3.43l-.903.756V5.5l.903-.755h.809v4.269h-.809zm.218 8.557h6.058v-1H4.484v1zm-.021-4.349h8.075v-1H4.463v1zm0 2.174h8.075v-1H4.463v1zM1.5 1a.5.5 0 0 0-.5.5v19a.5.5 0 0 0 .5.5h14a.5.5 0 0 0 .5-.5v-19a.5.5 0 0 0-.5-.5h-14zm14 21h-14C.673 22 0 21.327 0 20.5v-19C0 .673.673 0 1.5 0h14c.827 0 1.5.673 1.5 1.5v19c0 .827-.673 1.5-1.5 1.5z" fill="#B0B0B0" fill-rule="evenodd"/></svg>