<svg xmlns="http://www.w3.org/2000/svg" width="28" height="28" viewBox="0 0 28 28"><path fill="#C7C7CC" fill-rule="evenodd" d="M6.518 7.016H4.513v-.502l.001-.057c0-.016.003-.03.003-.048a1.09 1.09 0 0 1 .007-.102.431.431 0 0 1 .028-.1.31.31 0 0 1 .051-.084.369.369 0 0 1 .069-.062.397.397 0 0 1 .169-.041h1.353c.03.001.057.003.086.01.03.005.055.016.083.031a.445.445 0 0 1 .069.062.369.369 0 0 1 .077.184.564.564 0 0 1 .007.102.393.393 0 0 1 .002.048v.559zM14 10.957a4.542 4.542 0 0 0-4.545 4.537A4.54 4.54 0 0 0 14 20.03a4.54 4.54 0 0 0 4.545-4.535A4.542 4.542 0 0 0 14 10.957zm12.485-1.17l-.003-.195a2.866 2.866 0 0 0-.037-.424 1.347 1.347 0 0 0-.725-.992 1.418 1.418 0 0 0-.402-.133 2.644 2.644 0 0 0-.426-.037c-.064-.003-.129-.003-.195-.004h-.354l-2.187.001h-.649c-.1 0-.2 0-.298-.004a4.396 4.396 0 0 1-.649-.057 2.15 2.15 0 0 1-.615-.204c-.195-.097-.412-.36-.526-.545-.267-.434-.215-.335-.436-.765-.055-.11-.067-.176-.111-.264A2.082 2.082 0 0 0 17.35 5.06a4.548 4.548 0 0 0-.648-.057c-.099-.003-5.324-.003-5.421 0a4.588 4.588 0 0 0-.65.057c-.216.04-.419.103-.614.202a2.047 2.047 0 0 0-.525.381c-.157.152-.284.33-.381.522-.045.088-.071.18-.112.264-.149.31-.252.496-.432.752-.125.18-.332.466-.525.563a2.067 2.067 0 0 1-.615.202 3.94 3.94 0 0 1-.648.057c-.1.005-.2.005-.299.005-.119.002-.234.002-.354.002h-2.84c-.065 0-.129 0-.195.003a2.641 2.641 0 0 0-.424.038 1.402 1.402 0 0 0-.745.38 1.395 1.395 0 0 0-.383.745 2.852 2.852 0 0 0-.036.423c-.002.064-.002.13-.003.195v12.389c.001.065.001.132.003.194.003.141.012.285.036.424a1.425 1.425 0 0 0 .383.745 1.387 1.387 0 0 0 .745.38c.141.027.283.033.424.037.066.002.13.017.195.017.078 0 .155.011.232.011h18.188l2.637.007h.124c.077 0 .154-.01.23-.01.066 0 .131-.008.195-.012.143-.002.285-.013.426-.04a1.387 1.387 0 0 0 .745-.382 1.362 1.362 0 0 0 .382-.746 2.83 2.83 0 0 0 .037-.423c.002-.064.002-.13.003-.194 0-.077.016-.154.016-.232V10.017c0-.077-.016-.153-.016-.23zm-12.482 11.2c-3.041 0-5.507-2.459-5.507-5.493A5.502 5.502 0 0 1 14.003 10a5.5 5.5 0 0 1 5.505 5.495 5.499 5.499 0 0 1-5.505 5.493zm7.011-9.887a.604.604 0 1 1 0-1.207.604.604 0 0 1 0 1.207z"/></svg>