<svg xmlns="http://www.w3.org/2000/svg" width="18" height="18" viewBox="0 0 18 18"><g fill="none" fill-rule="evenodd" stroke="#98A2AB" stroke-linecap="round" stroke-linejoin="round" stroke-width=".9"><path d="M17.06 7.592c-.052-.09-.117-.133-.229-.132-.49.005-.979 0-1.468.004-.089.001-.13-.03-.162-.107-.235-.535-.472-.923-.714-1.455-.16-.35-.296-.706-.555-1.01-.466-.551-1.02-.857-1.776-.852-2.373.017-4.346.006-6.719.007-.325 0-.648.02-.941.174-.493.26-.867.643-1.104 1.134-.34.705-.655 1.276-.976 1.99-.04.092-.093.12-.193.12-.465-.006-.93-.003-1.394-.003-.2 0-.257.04-.325.227-.166.447.065.885.563 1.034.172.051.351.076.533.107.056.009.09.067.068.119-.158.383-.32.667-.475 1.05a.637.637 0 0 0-.047.239l.012 3.57c0 .05.041.089.092.089h.635c.05 0 .091.04.091.089v1.367c0 .35.289.636.647.638.483.004 1.117.004 1.6-.004.423-.007.66-.279.66-.695v-1.306a.09.09 0 0 1 .09-.089h7.66c.05 0 .09.04.09.089v1.191c0 .45.372.814.831.816l1.276.002a.816.816 0 0 0 .823-.806v-1.292h.817c.001-1.023.004-2.046.02-3.069a3.138 3.138 0 0 0-.313-1.43c-.088-.178-.16-.267-.23-.44a.087.087 0 0 1 .063-.12c.237-.056.472-.1.692-.186a.734.734 0 0 0 .358-1.06z"/><path d="M3.574 12.352a1.085 1.085 0 0 1-1.08-1.103c.004-.553.512-1.035 1.09-1.03.603.003 1.08.482 1.08 1.077-.002.578-.5 1.061-1.09 1.056zm.72-4.137a.074.074 0 0 1-.07-.105l.192-.412c.224-.478.443-.834.673-1.308.127-.26.293-.497.57-.627a.724.724 0 0 1 .298-.071c2.01-.005 3.688-.003 5.7-.003.314 0 .535.171.692.407.163.242.3.421.427.683.227.468.438.903.656 1.375.008.018.013.037.021.06h-9.16zm9.732 4.137c-.604 0-1.08-.48-1.082-1.086 0-.57.492-1.047 1.083-1.048.595 0 1.084.483 1.085 1.073 0 .576-.498 1.061-1.086 1.061z"/></g></svg>