<svg xmlns="http://www.w3.org/2000/svg" width="20" height="20" viewBox="0 0 20 20">
    <g fill="#98A2AB" fill-rule="evenodd">
        <path d="M0 18h20V2H0v16zm1-.941h18V2.94H1V17.06z"/>
        <path d="M0 18h4.001V2H0v16zM1 5.915h2.001V4.231H1v1.684zM1 9.2h2.001V7.516H1V9.2zm0 3.284h2.001V10.8H1v1.684zm0 3.284h2.001v-1.684H1v1.684zM16 18h4V2h-4v16zm1-12.085h2V4.231h-2v1.684zM17 9.2h2V7.516h-2V9.2zm0 3.284h2V10.8h-2v1.684zm0 3.284h2v-1.684h-2v1.684zM13.68 12.156l-1.107-.445c-.487-.214-.898-.36-1.385-.573-.147-.064-.224-.172-.217-.339v-.023a.66.66 0 0 1 .15-.504c.19-.243.312-.528.419-.82a.45.45 0 0 1 .063-.114.942.942 0 0 0 .19-.746c-.008-.062-.049-.119-.071-.179-.024-.067-.058-.135-.06-.203a23.218 23.218 0 0 1 0-1.001c.011-.572-.326-1.121-.888-1.314a2.337 2.337 0 0 0-.774-.13 2.332 2.332 0 0 0-.773.13c-.563.193-.9.742-.888 1.314.008.333.005.667-.001 1-.001.069-.036.137-.06.204-.02.06-.062.117-.07.18a.939.939 0 0 0 .19.745.42.42 0 0 1 .062.114c.107.292.23.577.419.82a.66.66 0 0 1 .15.504v.023c.008.167-.07.275-.217.339-.487.214-.898.36-1.385.573l-1.105.445s-.822.373-.822 2.08h9c0-1.707-.82-2.08-.82-2.08"/>
    </g>
</svg>
