<svg xmlns="http://www.w3.org/2000/svg" width="26" height="26" viewBox="0 0 26 26">
    <g fill="none" fill-rule="evenodd" stroke="#62707F" stroke-linecap="round">
        <path stroke-width="1.25" d="M20.059 17.646l-2.306-.93c-1.015-.449-1.873-.757-2.888-1.201-.307-.136-.468-.361-.455-.71a.221.221 0 0 0 0-.05c-.043-.398.064-.73.315-1.053.395-.51.65-1.107.873-1.716a.893.893 0 0 1 .131-.238c.361-.461.477-.988.397-1.563-.018-.13-.104-.247-.149-.375-.049-.14-.121-.284-.124-.426-.013-.7-.018-1.398-.003-2.096.025-1.196-.676-2.346-1.85-2.75a4.752 4.752 0 0 0-1.614-.271 4.752 4.752 0 0 0-1.614.27c-1.175.405-1.875 1.555-1.85 2.75.015.699.01 1.398-.003 2.097-.003.142-.075.286-.124.426-.046.128-.13.245-.149.375-.08.575.036 1.102.397 1.563.055.07.1.153.131.238.224.609.478 1.207.874 1.716.25.323.357.655.314 1.054l-.001.05c.014.348-.146.573-.453.709-1.016.444-1.875.752-2.89 1.2l-2.305.931S3 18.426 3 22h18.772c0-3.575-1.713-4.354-1.713-4.354z"/>
        <path fill="#FFF" stroke-linejoin="round" stroke-width=".5" d="M24.524 19.762a4.762 4.762 0 1 1-9.524 0 4.762 4.762 0 0 1 9.524 0z"/>
        <g stroke-linejoin="round">
            <path d="M19.762 22.126v-2.364h2.364M19.762 17.398v2.364h-2.364"/>
            <path d="M24.524 19.762a4.762 4.762 0 1 1-9.524 0 4.762 4.762 0 0 1 9.524 0z"/>
        </g>
    </g>
</svg>
