<svg xmlns="http://www.w3.org/2000/svg" width="24" height="24" viewBox="0 0 24 24"><path fill="none" stroke="#62707F" stroke-linecap="round" d="M18.647 15.563l-1.844-.735c-.813-.354-1.499-.597-2.311-.948-.246-.107-.375-.285-.364-.56a.172.172 0 0 0 0-.039 1.085 1.085 0 0 1 .252-.832c.316-.402.52-.874.698-1.355a.702.702 0 0 1 .105-.188c.29-.364.382-.78.318-1.234-.015-.102-.084-.195-.12-.296-.038-.11-.096-.224-.098-.336a40.407 40.407 0 0 1-.003-1.655c.02-.944-.54-1.852-1.48-2.171A3.848 3.848 0 0 0 12.509 5a3.848 3.848 0 0 0-1.291.214c-.94.319-1.5 1.227-1.48 2.171.012.551.008 1.103-.003 1.655-.002.112-.06.226-.1.336-.036.101-.103.194-.118.296-.064.454.028.87.317 1.234.044.055.08.121.105.188.18.481.383.953.699 1.355.2.255.286.517.252.832l-.001.039c.011.275-.117.453-.363.56-.813.351-1.5.594-2.311.948l-1.844.735S5 16.178 5 19h15.018c0-2.822-1.371-3.437-1.371-3.437z"/></svg>