<svg xmlns="http://www.w3.org/2000/svg" xmlns:xlink="http://www.w3.org/1999/xlink" width="24" height="24" viewBox="0 0 24 24"><defs><path id="a" d="M0 17h14.408V0H0z"/></defs><g fill="none" fill-rule="evenodd" transform="translate(5 4)"><path stroke="#62707F" d="M12.575 4.855l-.363 10.602c0 .574-.47 1.043-1.043 1.043h-7.93a1.046 1.046 0 0 1-1.042-1.043L1.833 4.855h10.742z"/><path stroke="#62707F" stroke-linecap="round" d="M7.204 7.682v5.702M4.771 7.682v5.702m4.866-5.702v5.702"/><mask id="b" fill="#fff"><use xlink:href="#a"/></mask><path stroke="#62707F" d="M.5 4.922h13.408V3.211H.5z" mask="url(#b)"/><path stroke="#62707F" d="M4.003 3.317V1.772c0-.7.573-1.272 1.272-1.272h3.857c.7 0 1.273.572 1.273 1.272v1.545" mask="url(#b)"/></g></svg>