<svg xmlns="http://www.w3.org/2000/svg" width="20" height="20" viewBox="0 0 20 20">
    <path fill="none" fill-rule="evenodd" stroke="#98A2AB" d="M17.168 14.535l-2.213-.841a42.127 42.127 0 0 0-1.37-.537l-.013-.004a44.89 44.89 0 0 1-1.386-.542c-.481-.198-.757-.584-.744-1.114-.05-.483.091-.91.415-1.302.29-.352.506-.769.756-1.41a1.26 1.26 0 0 1 .209-.356c.243-.29.328-.618.268-1.02.002.016 0 .009-.017-.022l-.014-.028a1.446 1.446 0 0 1-.084-.182l-.032-.08a1.852 1.852 0 0 1-.077-.213.983.983 0 0 1-.041-.256 44.107 44.107 0 0 1-.004-1.914 2.047 2.047 0 0 0-1.428-1.994 4.34 4.34 0 0 0-1.399-.22 4.318 4.318 0 0 0-1.388.22A2.045 2.045 0 0 0 7.18 4.716c.013.57.01 1.156-.004 1.912a.985.985 0 0 1-.04.257c-.02.069-.04.12-.078.213l-.033.08c-.022.061-.043.103-.083.18l-.015.03c-.016.032-.02.04-.017.026-.06.397.026.725.268 1.015.087.103.156.223.21.355.25.643.466 1.06.756 1.412.327.396.467.827.415 1.297.021.523-.256.918-.744 1.119-.407.168-.704.283-1.387.542l-.017.006c-.647.245-.965.368-1.379.54l-2.191.833c-.126.053-.36.23-.61.584-.392.552-.654 1.331-.716 2.384h16.972c-.062-1.053-.324-1.832-.715-2.384-.246-.347-.476-.524-.603-.58z"/>
</svg>
