<svg xmlns="http://www.w3.org/2000/svg" xmlns:xlink="http://www.w3.org/1999/xlink" width="36" height="22" viewBox="0 0 36 22"><defs><path id="a" d="M0 .438h15.687v14.964H0z"/></defs><g fill="none" fill-rule="evenodd"><path fill="#FFF" d="M17.434 16.506h.66v-1.839h-.66zm0 2.756h.66v-1.837h-.66zm0 2.738h.66v-1.818h-.66zm0-19.282h.66V.88h-.66zm0 11.03h.66V11.91h-.66zm0-8.273h.66V3.637h-.66zm0 2.757h.66V6.395h-.66zm0 2.758h.66V9.152h-.66z"/><g transform="translate(0 3.52)"><mask id="b" fill="#fff"><use xlink:href="#a"/></mask><path fill="#FFF" d="M14.196 6.483c-.17.856-.466 1.669-.995 2.399-.446.615-1.038 1.088-1.713 1.54.059-.463.128-.884.164-1.308.093-1.174.187-2.348.253-3.524.048-.845.05-1.692.07-2.536.003-.108.008-.214.16-.206.449.02.903.017 1.342.088.543.087.779.389.868.992.125.86.018 1.71-.149 2.555M6.03 10.005c-1.348 0-2.441-1.117-2.441-2.495 0-1.378 1.093-2.496 2.441-2.496 1.348 0 2.441 1.118 2.441 2.496s-1.093 2.495-2.44 2.495m7.989-8.164c-.346-.1-.72-.13-1.083-.16-.306-.025-.618-.005-.95-.005v-.653c0-.43-.16-.585-.622-.585H.619c-.458 0-.618.148-.62.566C0 3.2.03 5.392.19 7.582c.108 1.467.267 2.929.616 4.367.2.822.46 1.624.944 2.348.489.733 1.165 1.123 2.134 1.104 1.413-.03 2.829-.023 4.241-.003.883.014 1.533-.325 2.016-.982.387-.527.632-1.113.824-1.72.121-.384.363-.688.711-.924.285-.194.57-.387.855-.584 1.045-.72 1.86-1.61 2.368-2.726.38-.835.59-1.708.702-2.604.091-.732.137-1.465 0-2.197-.165-.872-.623-1.543-1.582-1.82" mask="url(#b)"/></g><path fill="#FFF" d="M34.035 10.003c-.168.856-.465 1.669-.994 2.399-.446.615-1.038 1.088-1.713 1.54.058-.463.129-.884.163-1.308.095-1.174.188-2.348.255-3.524.046-.845.049-1.692.069-2.536.003-.108.009-.214.16-.206.448.02.902.017 1.342.088.543.087.779.389.868.992.124.86.017 1.71-.15 2.555zm-10.862 3.291l2.575-4.385 2.574 4.385h-5.149zM35.44 7.181c-.164-.872-.623-1.543-1.581-1.82-.346-.1-.72-.13-1.084-.16-.306-.025-.618-.005-.949-.005v-.653c.001-.43-.16-.585-.622-.585H20.459c-.458 0-.619.148-.619.566-.002 2.195.028 4.388.19 6.578.108 1.467.268 2.929.615 4.367.2.822.46 1.624.945 2.348.49.733 1.165 1.123 2.135 1.104 1.412-.03 2.827-.023 4.24-.003.882.014 1.534-.325 2.016-.982.387-.527.633-1.113.823-1.72a1.73 1.73 0 0 1 .712-.924c.286-.194.571-.387.855-.584 1.045-.72 1.86-1.61 2.369-2.726.379-.835.59-1.708.701-2.604.09-.732.137-1.465 0-2.197z"/></g></svg>