<svg xmlns="http://www.w3.org/2000/svg" width="140" height="140" viewBox="0 0 140 140">
    <g fill="none" fill-rule="evenodd">
        <path fill="#FFF" d="M0 0h139.79v139.79H0z"/>
        <g fill="#4A90E2" fill-rule="nonzero">
            <path d="M124.063 66.4h-7.449v-7.45c0-1.489-.993-2.482-2.483-2.482h-4.966v-4.47a9.432 9.432 0 0 0-9.436-9.436h-14.65a9.432 9.432 0 0 0-9.436 9.436 4.451 4.451 0 0 1-4.47 4.47H32.685a4.451 4.451 0 0 1-4.47-4.47V14.255c0-1.49-.993-2.483-2.483-2.483-1.49 0-2.483.993-2.483 2.483v37.743a9.432 9.432 0 0 0 9.436 9.436H71.67a9.432 9.432 0 0 0 9.436-9.436 4.451 4.451 0 0 1 4.47-4.47h14.65a4.451 4.451 0 0 1 4.47 4.47v4.47h-4.967c-1.49 0-2.483.993-2.483 2.483v7.45H9.84c-1.49 0-2.483.992-2.483 2.482v59.595c0 1.49.994 2.483 2.483 2.483h114.223c1.49 0 2.484-.993 2.484-2.483V68.883c0-1.49-.994-2.483-2.484-2.483zm-22.348-4.966h9.933V66.4h-9.933v-4.966zm19.865 64.56H12.324V71.367H121.58v54.629z"/>
            <path d="M26.097 78.156H21.81c-1.429 0-2.382.905-2.382 2.263 0 1.358.953 2.263 2.382 2.263h4.288c1.43 0 2.382-.905 2.382-2.263 0-1.358-1.19-2.263-2.382-2.263zM49.602 80.419c0-1.358-.953-2.263-2.383-2.263h-4.288c-1.429 0-2.382.905-2.382 2.263 0 1.358.953 2.263 2.382 2.263h4.288c1.192 0 2.383-.905 2.383-2.263zM59.527 82.682h4.288c1.43 0 2.383-.905 2.383-2.263 0-1.358-.953-2.263-2.383-2.263h-4.288c-1.429 0-2.382.905-2.382 2.263 0 1.358.953 2.263 2.382 2.263zM74.615 82.682h4.288c1.429 0 2.382-.905 2.382-2.263 0-1.358-.953-2.263-2.382-2.263h-4.288c-1.43 0-2.383.905-2.383 2.263 0 1.358.953 2.263 2.383 2.263zM91.21 82.682H95.5c1.429 0 2.382-.905 2.382-2.263 0-1.358-.953-2.263-2.382-2.263H91.21c-1.43 0-2.383.905-2.383 2.263 0 1.358.953 2.263 2.383 2.263zM112.095 78.156h-4.288c-1.43 0-2.383.905-2.383 2.263 0 1.358.953 2.263 2.383 2.263h4.288c1.429 0 2.382-.905 2.382-2.263 0-1.358-.953-2.263-2.382-2.263zM35.388 96.26h4.288c1.43 0 2.382-.905 2.382-2.263 0-1.358-.953-2.263-2.382-2.263h-4.288c-1.43 0-2.382.905-2.382 2.263 0 1.358 1.19 2.263 2.382 2.263zM23.318 91.734h-4.526c-1.43 0-2.382.905-2.382 2.263 0 1.358.953 2.263 2.382 2.263h4.288c1.43 0 2.382-.905 2.382-2.263 0-1.358-.953-2.263-2.144-2.263zM48.093 93.997c0 1.358.953 2.263 2.382 2.263h4.288c1.43 0 2.382-.905 2.382-2.263 0-1.358-.953-2.263-2.382-2.263h-4.288c-1.191 0-2.382.905-2.382 2.263zM64.689 93.997c0 1.358.928 2.263 2.321 2.263h4.41c1.393 0 2.321-.905 2.321-2.263 0-1.358-.928-2.263-2.32-2.263h-4.179c-1.393 0-2.553.905-2.553 2.263zM81.285 93.997c0 1.358.953 2.263 2.382 2.263h4.288c1.43 0 2.382-.905 2.382-2.263 0-1.358-.953-2.263-2.382-2.263h-4.288c-1.191 0-2.382.905-2.382 2.263zM97.88 93.997c0 1.358.954 2.263 2.383 2.263h4.288c1.43 0 2.382-.905 2.382-2.263 0-1.358-.953-2.263-2.382-2.263h-4.288c-1.43 0-2.382.905-2.382 2.263zM39.676 108.33c1.43 0 2.382-.905 2.382-2.263 0-1.358-.953-2.263-2.382-2.263h-4.288c-1.43 0-2.382.905-2.382 2.263 0 1.358.953 2.263 2.382 2.263h4.288zM23.318 103.804h-4.526c-1.43 0-2.382.905-2.382 2.263 0 1.358.953 2.263 2.382 2.263h4.288c1.43 0 2.382-.905 2.382-2.263 0-1.358-.953-2.263-2.144-2.263zM41.185 115.874h-4.288c-1.43 0-2.383.905-2.383 2.263 0 1.358.953 2.263 2.383 2.263h4.288c1.429 0 2.382-.905 2.382-2.263 0-1.358-.953-2.263-2.382-2.263zM23.318 115.874h-4.526c-1.43 0-2.382.905-2.382 2.263 0 1.358.953 2.263 2.382 2.263h4.288c1.43 0 2.382-.905 2.382-2.263 0-1.358-.953-2.263-2.144-2.263zM113.603 115.874h-4.288c-1.429 0-2.382.905-2.382 2.263 0 1.358.953 2.263 2.382 2.263h4.288c1.43 0 2.382-.905 2.382-2.263 0-1.358-.952-2.263-2.382-2.263zM95.499 115.874H91.21c-1.43 0-2.383.905-2.383 2.263 0 1.358.953 2.263 2.383 2.263h4.288c1.429 0 2.382-.905 2.382-2.263 0-1.358-.953-2.263-2.382-2.263zM54.763 108.33c1.43 0 2.382-.905 2.382-2.263 0-1.358-.953-2.263-2.382-2.263h-4.288c-1.43 0-2.382.905-2.382 2.263 0 1.358.953 2.263 2.382 2.263h4.288zM71.359 103.804h-4.288c-1.43 0-2.382.905-2.382 2.263 0 1.358.953 2.263 2.382 2.263h4.288c1.43 0 2.382-.905 2.382-2.263 0-1.358-1.19-2.263-2.382-2.263zM90.337 106.067c0-1.358-.953-2.263-2.382-2.263h-4.288c-1.43 0-2.382.905-2.382 2.263 0 1.358.953 2.263 2.382 2.263h4.288c1.191 0 2.382-1.131 2.382-2.263zM104.55 103.804h-4.287c-1.43 0-2.382.905-2.382 2.263 0 1.358.953 2.263 2.382 2.263h4.288c1.43 0 2.382-.905 2.382-2.263 0-1.358-1.191-2.263-2.382-2.263zM111.46 94.327v11.41c0 1.556.905 2.593 2.262 2.593 1.358 0 2.263-1.037 2.263-2.593v-11.41c0-1.556-.905-2.593-2.263-2.593-1.357 0-2.263 1.297-2.263 2.593zM80.298 115.874h-28.2c-1.498 0-2.496.905-2.496 2.263 0 1.358.998 2.263 2.495 2.263h28.2c1.498 0 2.497-.905 2.497-2.263 0-1.358-.999-2.263-2.496-2.263z"/>
        </g>
    </g>
</svg>
