<svg xmlns="http://www.w3.org/2000/svg" width="28" height="28" viewBox="0 0 28 28"><g fill="#C7C7CC"><path d="M22.643 8.345h-.346l-4.761 8.042-4.392.874-1.407-4.12 2.848-4.796H5.357C4.055 8.345 3 9.371 3 10.636v10.691c0 1.266 1.055 2.291 2.357 2.291h17.286c1.302 0 2.357-1.025 2.357-2.29V10.635c0-1.265-1.055-2.29-2.357-2.29zM8.107 18.273c-1.302 0-2.357-1.026-2.357-2.291s1.055-2.291 2.357-2.291c1.302 0 2.357 1.026 2.357 2.29 0 1.266-1.055 2.292-2.357 2.292zM22.014 5.772a1.504 1.504 0 0 0-.573-2.085l-.342-.19a1.611 1.611 0 0 0-1.193-.155c-.404.105-.747.36-.956.712l-.22.382 3.06 1.718.224-.382z"/><path d="M14.196 15.493l2.318-.462 4.495-7.564-3.065-1.718-4.494 7.564z"/></g></svg>