<svg xmlns="http://www.w3.org/2000/svg" width="70" height="70" viewBox="0 0 70 70">
    <g fill="none" fill-rule="evenodd">
        <rect width="67.717" height="67.717" x="1.141" y="1.141" stroke="#57AEE0" stroke-width="2.283" rx="12"/>
        <path fill="#4A90E2" d="M25.857 49a1.426 1.426 0 0 1-1.428-1.072l-2.543-10.203h-7.457c-.79 0-1.429-.63-1.429-1.409 0-.778.64-1.41 1.429-1.41H23a1.426 1.426 0 0 1 1.429 1.072l1.428 5.806 5.714-22.717c.16-.627.73-1.067 1.386-1.067.655 0 1.227.44 1.386 1.067l4.057 15.84h3.171a1.43 1.43 0 0 1 1.272.775l1.586 3.114 1.585-3.114a1.43 1.43 0 0 1 1.272-.775h4.285c.79 0 1.429.63 1.429 1.409 0 .778-.64 1.41-1.429 1.41h-3.4l-2.457 4.861a1.43 1.43 0 0 1-1.278.78 1.43 1.43 0 0 1-1.279-.78l-2.471-4.862h-3.4a1.426 1.426 0 0 1-1.429-1.07L33 25.21l-5.714 22.717A1.426 1.426 0 0 1 25.857 49z"/>
    </g>
</svg>
