<svg xmlns="http://www.w3.org/2000/svg" width="70" height="70" viewBox="0 0 70 70">
    <g fill="none" fill-rule="evenodd">
        <g fill="#57AEE0">
            <path d="M35 14.862c-4.753 0-8.62 3.868-8.62 8.621 0 4.754 3.867 8.62 8.62 8.62 4.754 0 8.622-3.866 8.622-8.62 0-4.753-3.868-8.621-8.621-8.621m0 19.61c-6.058 0-10.99-4.93-10.99-10.989 0-6.061 4.932-10.99 10.99-10.99s10.99 4.929 10.99 10.99c0 6.058-4.932 10.989-10.99 10.989M17.988 51.905c1.051.78 5.286 3.233 17.012 3.233 11.684 0 15.933-2.435 17.012-3.237-.208-8.54-5.414-13.003-7.2-14.287l-9.149 6.176c-.4.27-.923.27-1.326 0l-9.154-6.179c-1.805 1.278-6.992 5.683-7.195 14.294M35 57.507c-15.054 0-18.739-3.873-19.111-4.313a1.196 1.196 0 0 1-.276-.763c0-12.003 8.63-17.06 8.997-17.268a1.182 1.182 0 0 1 1.248.047L35 41.382l9.142-6.172c.374-.253.857-.27 1.25-.047.367.208 8.995 5.265 8.995 17.268 0 .28-.097.55-.276.763-.37.44-4.057 4.313-19.11 4.313"/>
        </g>
        <rect width="67.717" height="67.717" x="1.141" y="1.141" stroke="#57AEE0" stroke-width="2.283" rx="28.913"/>
    </g>
</svg>
