<svg xmlns="http://www.w3.org/2000/svg" width="32" height="32" viewBox="0 0 32 32">
    <path fill="#0093EE" fill-rule="evenodd" d="M15.997 27.999c-3.851 0-7.7.002-11.551 0-1.23 0-2.139-.72-2.39-1.888a2.952 2.952 0 0 1-.054-.637c-.003-6.344-.003-12.688 0-19.03 0-1.384.98-2.424 2.319-2.434 2.09-.016 4.182-.011 6.274.005.21.003.448.112.621.245 1.085.822 2.162 1.656 3.228 2.502.25.197.499.285.817.285 4.068-.01 8.138-.005 12.206-.008.6 0 1.163.104 1.65.501.65.528.882 1.24.882 2.07-.002 4.37 0 8.736 0 13.104 0 .917.003 1.834-.002 2.749-.005 1.504-1 2.536-2.449 2.536-3.851.002-7.702 0-11.551 0"/>
</svg>
