<svg xmlns="http://www.w3.org/2000/svg" xmlns:xlink="http://www.w3.org/1999/xlink" width="39" height="39" viewBox="0 0 39 39">
    <defs>
        <circle id="b" cx="17.5" cy="17.5" r="17.5"/>
        <filter id="a" y="-7.1%" filterUnits="objectBoundingBox">
            <feOffset dy="1" in="SourceAlpha" result="shadowOffsetOuter1"/>
            <feGaussianBlur in="shadowOffsetOuter1" result="shadowBlurOuter1" stdDeviation="1"/>
            <feColorMatrix in="shadowBlurOuter1" values="0 0 0 0 0.689374211 0 0 0 0 0.882338716 0 0 0 0 1 0 0 0 1 0"/>
        </filter>
    </defs>
    <g fill="none" fill-rule="evenodd">
        <g transform="translate(2 1)">
            <use fill="#000" filter="url(#a)" xlink:href="#b"/>
            <use fill="#FFF" xlink:href="#b"/>
        </g>
        <g fill="#0196F1" fill-rule="nonzero">
            <path d="M30.776 21.483l-3.644-9.602a1.55 1.55 0 0 0-1.996-.893l-4.748 1.818a.556.556 0 0 0 .396 1.038l4.74-1.81a.447.447 0 0 1 .563.252l3.644 9.601a.447.447 0 0 1-.252.563l-3.832 1.45v-6.887a1.55 1.55 0 0 0-1.547-1.548h-2.332a.558.558 0 0 0 0 1.117H24.1c.246 0 .446.2.446.446v10.245c0 .247-.2.447-.446.447h-7.465v-3.555a1.539 1.539 0 0 0-1.537-1.534h-3.543v-4.426a.558.558 0 0 0-1.117 0v4.98c0 .147.059.289.163.393l5.087 5.082a.556.556 0 0 0 .393.163H24.1a1.55 1.55 0 0 0 1.547-1.547v-2.189l4.243-1.607a1.547 1.547 0 0 0 .893-1.997h-.007zm-15.251 2.68v2.762l-3.175-3.177h2.748c.232 0 .422.185.427.417v-.002z"/>
            <path d="M10.724 12.466h.223c.441.923.625 1.947.534 2.966a1.362 1.362 0 0 0 1.203 1.48c.096.01.192.016.289.016.83 0 1.857-.346 2.871-.967l1.606 2.298a.556.556 0 0 0 .91-.637l-1.61-2.306c1.044-.827 1.77-1.787 1.981-2.64a1.362 1.362 0 0 0-.975-1.639 5.694 5.694 0 0 1-2.602-1.523c.322-.687.308-1.322-.024-1.8-.686-.98-2.466-.841-4.138.329a5.36 5.36 0 0 0-1.666 1.786c-.404.76-.426 1.465-.065 1.983.306.44.829.654 1.463.654zm6.761-.355c.13.034.209.165.179.295-.172.695-.951 1.608-1.985 2.33-1.034.72-2.17 1.14-2.883 1.064a.248.248 0 0 1-.223-.27 6.764 6.764 0 0 0-.534-3.325 6.03 6.03 0 0 0 1.34-.717 6.03 6.03 0 0 0 1.137-1.022 6.764 6.764 0 0 0 2.97 1.645zm-7.179-1.761c.33-.561.782-1.04 1.322-1.4a3.872 3.872 0 0 1 2.061-.775.652.652 0 0 1 .536.176c.107.152.054.469-.136.824a4.305 4.305 0 0 1-1.326 1.398c-1.217.848-2.365.924-2.59.6-.108-.154-.056-.464.133-.823z"/>
        </g>
    </g>
</svg>
