<svg width="9" height="12" viewBox="0 0 9 12" xmlns="http://www.w3.org/2000/svg"><title>Lock / Locked</title><path d="M6.924 4.609c0-.436-.008-.859.003-1.28.015-.656-.253-1.156-.753-1.506-.954-.667-1.964-.697-2.983-.192-.526.262-.925.683-1.022 1.329-.041.266-.02.542-.022.814-.003.276-.001.552-.001.835h4.778zm1.17-.005c.145.011.271.01.393.032.285.05.466.255.5.557.009.063.012.127.012.19L9 11.241c0 .188-.003.387-.144.517-.108.1-.252.164-.387.227-.056.025-.13.011-.195.011H.721c-.176 0-.347-.006-.493-.136-.165-.146-.228-.334-.228-.553C0 9.307 0 7.31.002 5.31c0-.423.245-.677.642-.693.103-.004.206-.001.335-.001v-.21c0-.481-.025-.964.01-1.443.068-.925.514-1.638 1.208-2.17.974-.746 2.065-.945 3.23-.683.844.19 1.553.623 2.09 1.353.393.537.57 1.15.576 1.826.005.433.001.867.001 1.315z" fill="#62707F" fill-rule="evenodd"/></svg>