<svg xmlns="http://www.w3.org/2000/svg" width="24" height="24" viewBox="0 0 24 24">
    <path fill="#FFF" fill-rule="evenodd" d="M13.924 9.714c0-.446-.008-.878.003-1.309.015-.671-.253-1.183-.753-1.54-.954-.683-1.964-.714-2.983-.197-.526.268-.925.699-1.022 1.36-.041.271-.02.554-.022.832-.003.283-.001.564-.001.854h4.778zm1.17-.005c.145.011.271.01.393.032.285.052.466.261.5.57.009.065.012.13.012.195l.001 5.99c0 .193-.003.397-.144.53-.108.102-.252.167-.387.232-.056.026-.13.011-.195.011H7.721c-.176 0-.347-.006-.493-.139-.165-.149-.228-.342-.228-.565 0-2.045-.001-4.09.002-6.134 0-.433.245-.693.642-.71.103-.003.206 0 .335 0v-.215c0-.492-.025-.986.01-1.475.068-.946.514-1.676 1.208-2.22.974-.763 2.065-.967 3.23-.699a3.437 3.437 0 0 1 2.09 1.384c.393.55.57 1.177.576 1.868.005.443.001.887.001 1.345z"/>
</svg>
