<svg xmlns="http://www.w3.org/2000/svg" width="18" height="18" viewBox="0 0 18 18"><path fill="none" stroke="#98A2AB" stroke-linecap="round" stroke-linejoin="round" stroke-width=".9" d="M6.707 6.686c0 1.07.891 1.936 1.984 1.931 1.072-.004 1.97-.864 1.976-1.892.007-1.057-.898-1.936-1.988-1.93-1.078.006-1.973.865-1.972 1.891m-.074 6.733c-.853-1.225-1.63-2.496-2.246-3.851-.34-.748-.634-1.51-.744-2.326-.15-1.125.097-2.171.722-3.125.883-1.345 2.162-2.124 3.797-2.29 2.73-.275 5.073 1.542 5.532 4.036.185 1.001-.013 1.948-.368 2.88-.447 1.173-1.053 2.269-1.72 3.335-.843 1.35-1.951 2.873-2.946 4.122-.69-.944-1.378-1.85-2.027-2.781z"/></svg>