<svg xmlns="http://www.w3.org/2000/svg" xmlns:xlink="http://www.w3.org/1999/xlink" width="23" height="20" viewBox="0 0 23 20"><defs><path id="a" d="M0 0h13.378v16.789H0z"/><path id="c" d="M.581.45h13.383v16.217H.581z"/></defs><g fill="none" fill-rule="evenodd"><mask id="b" fill="#fff"><use xlink:href="#a"/></mask><path fill="#FFF" d="M8.618 3.783c0-.383.202-.736.527-.917a.967.967 0 0 1 1.026.048c.954.656 2.06.852 3.207 1.004a367.06 367.06 0 0 1-.009-2.437c0-.045-.008-.09-.007-.085C11.49 0 6.692 0 6.692 0 1.89 0 .003 1.33.003 1.33v.26c0 2.521-.007 4.284.005 6.806.003.58.032 1.167.117 1.74.27 1.825.985 3.434 2.259 4.743 1.139 1.17 2.499 1.853 4.112 1.907a5.545 5.545 0 0 0 2.965-.735 10.34 10.34 0 0 1-.709-2.545 12.911 12.911 0 0 1-.113-1.437 19.237 19.237 0 0 0-5.552.233c.022-.166.034-.356.075-.54.336-1.476 1.71-2.533 3.02-2.7a3.741 3.741 0 0 1 2.44.549C8.62 8.42 8.617 7.23 8.618 6.04l.001-1.998v-.259z" mask="url(#b)"/><g transform="translate(9.036 3.333)"><mask id="d" fill="#fff"><use xlink:href="#c"/></mask><path fill="#FFF" d="M10.804 10.8c-.334 1.476-1.71 2.533-3.018 2.7-1.533.197-3.079-.584-3.787-1.982a2.936 2.936 0 0 1-.332-1.26 19.1 19.1 0 0 0 7.214.001c-.023.166-.035.357-.077.541M13.951.6a.42.42 0 0 0-.008-.085c-.451.205-.887.443-1.347.605-1.159.408-2.367.553-3.581.625-1.585.095-3.17.088-4.749-.12C2.986 1.457 1.72 1.23.583.45v.26c0 2.52-.007 5.042.005 7.563.002.581.032 1.168.117 1.741.269 1.825.985 3.433 2.26 4.743 1.139 1.17 2.497 1.853 4.11 1.906 1.637.055 3.059-.54 4.258-1.682 1.716-1.634 2.55-3.714 2.6-6.1.06-2.76.016-5.52.018-8.28" mask="url(#d)"/></g></g></svg>