<svg xmlns="http://www.w3.org/2000/svg" xmlns:xlink="http://www.w3.org/1999/xlink" width="20" height="20" viewBox="0 0 20 20">
    <defs>
        <path id="a" d="M0 0h8v7H0z"/>
        <path id="c" d="M0 0h8v7H0z"/>
    </defs>
    <g fill="none" fill-rule="evenodd">
        <g transform="translate(6 2)">
            <mask id="b" fill="#fff">
                <use xlink:href="#a"/>
            </mask>
            <path fill="#98A2AB" d="M7.27 5.282l-.982-.368c-.433-.176-.798-.298-1.232-.473-.131-.054-.2-.143-.193-.281a.06.06 0 0 0 0-.02.517.517 0 0 1 .134-.415c.169-.201.277-.437.373-.677a.323.323 0 0 1 .055-.095.736.736 0 0 0 .169-.616c-.008-.052-.044-.098-.063-.148-.021-.055-.052-.112-.053-.17a18.997 18.997 0 0 1-.002-.826A1.112 1.112 0 0 0 4.688.108 2.187 2.187 0 0 0 4 0a2.185 2.185 0 0 0-.687.108c-.501.159-.8.613-.79 1.085.008.276.006.552 0 .827-.001.057-.032.114-.053.169-.02.05-.055.096-.063.148a.736.736 0 0 0 .169.616.323.323 0 0 1 .055.095c.096.24.204.476.372.677a.514.514 0 0 1 .134.416v.019c.007.138-.062.227-.193.28-.433.176-.798.298-1.231.474l-.983.368S0 5.59 0 7h8c0-1.41-.73-1.718-.73-1.718" mask="url(#b)"/>
        </g>
        <g transform="translate(0 11)">
            <mask id="d" fill="#fff">
                <use xlink:href="#c"/>
            </mask>
            <path fill="#98A2AB" d="M7.27 5.282l-.982-.368c-.433-.176-.798-.298-1.232-.473-.131-.054-.2-.143-.193-.281a.06.06 0 0 0 0-.02.517.517 0 0 1 .134-.415c.169-.201.277-.437.373-.677a.323.323 0 0 1 .055-.095.736.736 0 0 0 .169-.616c-.008-.052-.044-.098-.063-.148-.021-.055-.052-.112-.053-.17a18.997 18.997 0 0 1-.002-.826A1.112 1.112 0 0 0 4.688.108 2.187 2.187 0 0 0 4 0a2.185 2.185 0 0 0-.687.108c-.501.159-.8.613-.79 1.085.008.276.006.552 0 .827-.001.057-.032.114-.053.169-.02.05-.055.096-.063.148a.736.736 0 0 0 .169.616.323.323 0 0 1 .055.095c.096.24.204.476.372.677a.514.514 0 0 1 .134.416v.019c.007.138-.062.227-.193.28-.433.176-.798.298-1.231.474l-.983.368S0 5.59 0 7h8c0-1.41-.73-1.718-.73-1.718" mask="url(#d)"/>
        </g>
        <path fill="#98A2AB" d="M19.27 16.282l-.982-.368c-.433-.176-.798-.298-1.232-.473-.131-.054-.2-.143-.193-.281a.06.06 0 0 0 0-.02.517.517 0 0 1 .134-.415c.169-.201.277-.437.373-.677a.323.323 0 0 1 .055-.095.736.736 0 0 0 .169-.616c-.008-.052-.044-.098-.063-.148-.021-.055-.052-.112-.053-.17a18.997 18.997 0 0 1-.002-.826 1.112 1.112 0 0 0-.788-1.085A2.187 2.187 0 0 0 16 11a2.185 2.185 0 0 0-.687.108c-.501.159-.8.613-.79 1.085.008.276.006.552 0 .827-.001.057-.032.114-.053.169-.02.05-.055.096-.063.148a.736.736 0 0 0 .169.616.323.323 0 0 1 .055.095c.096.24.204.476.372.677a.514.514 0 0 1 .134.416v.019c.007.138-.062.227-.193.28-.433.176-.798.298-1.231.474l-.983.368S12 16.59 12 18h8c0-1.41-.73-1.718-.73-1.718"/>
        <path stroke="#98A2AB" stroke-width=".5" d="M7.085 15.035l2.926-2.298 2.975 2.298M10.01 12.652V9.914"/>
    </g>
</svg>
