<svg xmlns="http://www.w3.org/2000/svg" width="26" height="26" viewBox="0 0 26 26"><g fill="none" fill-rule="evenodd" stroke="#62707F" stroke-linecap="round" stroke-linejoin="round"><path d="M14.854 15.174l7.297-7.296-2.034-2.035-7.297 7.297-1.129 3.162zM12.85 13.11l2.035 2.034m5.355-9.422a1.436 1.436 0 0 1 2.03.003c.561.562.563 1.472.003 2.03"/><path d="M18.66 13.903v6.26a1.62 1.62 0 0 1-1.62 1.62H6.12a1.62 1.62 0 0 1-1.62-1.62V5.12c0-.895.725-1.62 1.62-1.62h10.92a1.62 1.62 0 0 1 1.62 1.62"/></g></svg>