<svg xmlns="http://www.w3.org/2000/svg" width="25" height="25" viewBox="0 0 25 25"><path fill="#98A2AB" fill-rule="evenodd" d="M6.02 13.997a6.5 6.5 0 0 1 9.1-8.897c-2.595.454-4.58 2.404-5.026 4.946a3.212 3.212 0 0 0-.38-.023C7.6 10.023 6 11.585 6 13.651c0 .117.007.232.02.346zM11.5 0a.5.5 0 0 1 .5.5v2a.5.5 0 1 1-1 0v-2a.5.5 0 0 1 .5-.5zM4 10.5a.5.5 0 0 1-.5.5h-2a.5.5 0 1 1 0-1h2a.5.5 0 0 1 .5.5zm14.925-7.425a.5.5 0 0 1 0 .707L17.51 5.197a.5.5 0 1 1-.707-.707l1.415-1.415a.5.5 0 0 1 .707 0zM6.197 15.803a.5.5 0 0 1 0 .707l-1.415 1.415a.5.5 0 0 1-.707-.707l1.415-1.415a.5.5 0 0 1 .707 0zm0-10.606a.5.5 0 0 1-.707 0L4.075 3.782a.5.5 0 1 1 .707-.707L6.197 4.49a.5.5 0 0 1 0 .707zm16.02 10.796L9.467 16C8.048 15.882 7 14.832 7 13.651c0-1.508 1.146-2.628 2.714-2.628.088 0 .175.005.262.016l.94.112.163-.932C11.511 7.759 13.648 6 16.286 6c2.145 0 4.062 1.421 4.74 3.497l.226.69h.725c1.682 0 3.023 1.303 3.023 2.906 0 1.523-1.216 2.792-2.783 2.9z"/></svg>