<svg width="19" height="19" viewBox="0 0 19 19" xmlns="http://www.w3.org/2000/svg"><title>icon/side nav script/write/active</title><path d="M5.947 15.628L3.37 13.05l10.995-11 2.578 2.579L5.947 15.628zm-3.094-1.704l2.22 2.22-3.451 1.233 1.231-3.453zM17.48 1.513c.345.344.535.802.536 1.288.001.413-.142.8-.393 1.118L15.075 1.37a1.816 1.816 0 0 1 2.405.142zm1.519 1.286A2.796 2.796 0 0 0 14.38.675L14.365.66 2.279 12.75 0 19l6.063-2.164 12.27-12.207-.015-.015a2.767 2.767 0 0 0 .681-1.815z" fill="#B0B0B0" fill-rule="evenodd"/></svg>