<svg width="10" height="14" viewBox="0 0 10 14" xmlns="http://www.w3.org/2000/svg"><title>Lock / Locked Copy</title><path d="M3.02 4.75c0 1.04.867 1.882 1.93 1.878 1.042-.004 1.915-.84 1.92-1.84.008-1.028-.873-1.882-1.932-1.876-1.048.006-1.918.84-1.917 1.839M4.919 14c-.67-.918-1.34-1.798-1.97-2.704-.83-1.191-1.585-2.426-2.184-3.744-.33-.727-.617-1.468-.724-2.26-.146-1.095.096-2.112.703-3.04C1.602.946 2.845.188 4.435.028 7.09-.241 9.367 1.526 9.814 3.95c.18.974-.013 1.894-.358 2.8-.435 1.14-1.024 2.206-1.672 3.243a40.696 40.696 0 0 1-2.683 3.79c-.047.058-.097.115-.182.217" fill="#98A2AB" fill-rule="evenodd"/></svg>