<svg xmlns="http://www.w3.org/2000/svg" width="26" height="26" viewBox="0 0 26 26">
    <g fill="none" fill-rule="evenodd">
        <path d="M0 0h26v26H0z"/>
        <path stroke="#62707F" d="M19.655 18.435v-4.066H5.772v4.066h-1.71a1.506 1.506 0 0 1-1.51-1.495V9.687c0-.823.68-1.494 1.51-1.494h17.304c.83 0 1.509.671 1.509 1.494v7.253c0 .822-.679 1.495-1.509 1.495h-1.71z"/>
        <path stroke="#62707F" d="M5.772 22.228h13.883v-7.859H5.772zM5.772 8.205h13.883V3.548H5.772zM20.599 11.35a.95.95 0 0 1-.955.944.95.95 0 0 1-.954-.945.95.95 0 0 1 .954-.945.95.95 0 0 1 .955.945zM7.65 17.159H18.13M7.65 19.438H18.13"/>
    </g>
</svg>
