<svg xmlns="http://www.w3.org/2000/svg" xmlns:xlink="http://www.w3.org/1999/xlink" width="170" height="68" viewBox="0 0 170 68">
    <defs>
        <path id="a" d="M0 67.135h168.767V.205H0z"/>
    </defs>
    <g fill="none" fill-rule="evenodd">
        <path fill="#F9C71D" d="M3.021 32.021l-3.02 10.97 14.91-4.642L43.004 15.58z"/>
        <path fill="#FEDF93" d="M.015 42.973l9.81 6.068 41.846-9.895-38.04-.554z"/>
        <path fill="#4F4F4F" d="M27.913 33.322l9.806 10.033 1.384-32.296L31.698.93l-.125-.002z"/>
        <path fill="#787777" d="M31.632.865l-11.862 6-6.326 31.637 14.403-4.992L31.637.865z"/>
        <path fill="#6FBF58" d="M4.466 18.242L1.2 29.782l33.092 24.8 12.821-1.986-.51-11.894-26.357-30.83z"/>
        <g transform="translate(0 .66)">
            <path fill="#236D37" d="M20.245 9.211l26.723 31.201.144 11.523-28.969-30.671s2.105-12.42 2.102-12.053"/>
            <path fill="#269F48" d="M1.2 29.122L4.466 17.58l15.778-8.37-2.103 12.05z"/>
            <path fill="#CD3427" d="M14.078 38.52l20.703 15.902 12.332-2.486-.51-11.896L38 30.147"/>
            <path fill="#98301F" d="M38.087 29.819l8.881 10.594.144 11.523-9.184-9.324.159-12.793"/>
            <path fill="#954220" d="M43.098 14.974l8.697 12.58.17 11.101L41.2 28.465s1.904-13.859 1.898-13.491"/>
            <path fill="#2982A4" d="M28.065 32.07l9.718 10.381-.787 21.235-11.978-9.005 3.002-22.634"/>
            <path fill="#57AEE0" d="M25.008 54.722l3.034-22.64-14.79 6.061-4.366 20.952z"/>
            <path fill="#8FD3F4" d="M36.807 63.63l-14.911 3.504-13.01-8.039 16.305-4.726z"/>
            <path fill="#E3803C" d="M42.346 27.294L28.09 32.058l9.728 10.479 14.177-3.99s-9.664-11.578-9.65-11.253"/>
            <path fill="#C95B27" d="M29.357 20.086l13.752-5.118-.783 12.327-14.3 4.83z"/>
            <path fill="#626366" d="M67.292 14.747c1.106 0 1.752-.66 1.752-1.518v-.03c0-.99-.69-1.522-1.795-1.522h-1.71v3.07h1.753zm-3.966-5.063h4.11c2.399 0 3.85 1.42 3.85 3.47v.03c0 2.324-1.81 3.528-4.067 3.528h-1.68v3.012h-2.213V9.684zM77.384 14.561c1.078 0 1.696-.574 1.696-1.421v-.026c0-.947-.66-1.436-1.739-1.436h-2.197v2.883h2.24zm-4.453-4.877h4.597c1.28 0 2.27.358 2.931 1.02.56.558.861 1.347.861 2.294v.028c0 1.62-.876 2.64-2.154 3.113l2.457 3.586h-2.586l-2.155-3.213h-1.738v3.213h-2.213V9.685zM91.257 14.732v-.028c0-1.72-1.264-3.155-3.045-3.155-1.782 0-3.018 1.406-3.018 3.127v.028c0 1.722 1.264 3.156 3.046 3.156 1.78 0 3.017-1.405 3.017-3.128m-8.374 0v-.028c0-2.853 2.254-5.192 5.357-5.192s5.33 2.31 5.33 5.164v.028c0 2.855-2.255 5.194-5.358 5.194-3.104 0-5.33-2.31-5.33-5.166M99.47 17.73c1.811 0 3.033-1.218 3.033-2.997v-.028c0-1.78-1.222-3.027-3.032-3.027H97.76v6.052h1.71zm-3.922-8.045h3.923c3.16 0 5.344 2.167 5.344 4.99v.03c0 2.825-2.183 5.018-5.344 5.018h-3.923V9.685zM106.634 15.42V9.685h2.212v5.68c0 1.636.82 2.48 2.17 2.48s2.17-.818 2.17-2.409v-5.75h2.211v5.665c0 3.041-1.709 4.533-4.41 4.533s-4.353-1.507-4.353-4.462M117.217 14.732v-.028c0-2.853 2.154-5.192 5.244-5.192 1.896 0 3.032.63 3.966 1.548l-1.409 1.62c-.775-.702-1.567-1.131-2.572-1.131-1.694 0-2.916 1.406-2.916 3.127v.028c0 1.722 1.192 3.156 2.916 3.156 1.15 0 1.853-.46 2.643-1.175l1.409 1.419c-1.035 1.104-2.184 1.794-4.123 1.794-2.96 0-5.158-2.283-5.158-5.166M130.615 11.722h-3.06V9.683h8.332v2.039h-3.058v8.002h-2.214z"/>
            <mask id="b" fill="#fff">
                <use xlink:href="#a"/>
            </mask>
            <path fill="#626366" d="M137.69 19.725h2.214V9.685h-2.213zM150.352 14.732v-.028c0-1.72-1.265-3.155-3.045-3.155-1.783 0-3.02 1.406-3.02 3.127v.028c0 1.722 1.266 3.156 3.048 3.156 1.78 0 3.017-1.405 3.017-3.128m-8.375 0v-.028c0-2.853 2.255-5.192 5.358-5.192 3.103 0 5.33 2.31 5.33 5.164v.028c0 2.855-2.255 5.194-5.358 5.194-3.105 0-5.33-2.31-5.33-5.166M154.643 9.684h2.04l4.713 6.182V9.684h2.184v10.04h-1.883l-4.87-6.381v6.381h-2.184zM62.251 39.298v-.086c0-8.403 6.303-15.286 15.272-15.286 5.457 0 8.756 1.9 11.59 4.604l-3.342 3.842c-2.369-2.197-4.907-3.674-8.29-3.674-5.669 0-9.773 4.645-9.773 10.43v.084c0 5.787 4.104 10.516 9.772 10.516 3.638 0 5.965-1.479 8.502-3.844l3.342 3.38c-3.088 3.207-6.47 5.234-12.012 5.234-8.63 0-15.06-6.713-15.06-15.2M94.781 24.433h5.203v24.83h15.567v4.73h-20.77zM121.26 53.993h5.203v-29.56h-5.203zM158.57 39.298v-.086c0-5.742-4.189-10.514-10.068-10.514-5.88 0-9.983 4.686-9.983 10.43v.084c0 5.744 4.188 10.516 10.067 10.516 5.881 0 9.983-4.688 9.983-10.43m-25.507 0v-.086c0-8.32 6.43-15.286 15.524-15.286s15.44 6.883 15.44 15.202v.084c0 8.32-6.43 15.286-15.524 15.286-9.096 0-15.44-6.881-15.44-15.2" mask="url(#b)"/>
            <path fill="#626366" d="M160.081 59.046a10.462 10.462 0 0 1-9.65-6.384l4.952-2.092a5.095 5.095 0 0 0 4.698 3.107c1.698 0 3.279-.84 4.228-2.246l4.459 3.003a10.47 10.47 0 0 1-8.687 4.612" mask="url(#b)"/>
        </g>
    </g>
</svg>
