<svg xmlns="http://www.w3.org/2000/svg" width="16" height="15" viewBox="0 0 16 15"><path d="M8.245 2.806h6.284c.26 0 .471-.202.471-.451a.462.462 0 0 0-.471-.452H8.245a.462.462 0 0 0-.47.452c0 .25.21.451.47.451zm.018 3.162h4.893c.27 0 .49-.202.49-.452s-.22-.451-.49-.451H8.263c-.27 0-.489.202-.489.451 0 .25.22.452.49.452zM4.881 1H2.087C1.487 1 1 1.487 1 2.087V4.88c0 .6.487 1.087 1.087 1.087H4.88A1.087 1.087 0 0 0 5.968 4.88V2.087C5.968 1.487 5.48 1 4.88 1zm.155 3.881c0 .086-.07.155-.155.155H2.087a.155.155 0 0 1-.156-.155V2.087c0-.086.07-.156.156-.156H4.88c.086 0 .155.07.155.156V4.88zm3.209 6.054h6.284c.26 0 .471-.202.471-.451a.462.462 0 0 0-.471-.452H8.245a.462.462 0 0 0-.47.452c0 .25.21.451.47.451zm.018 3.162h4.893c.27 0 .49-.202.49-.452s-.22-.451-.49-.451H8.263c-.27 0-.489.202-.489.451 0 .25.22.452.49.452zM1 13.01c0 .6.487 1.087 1.087 1.087H4.88c.6 0 1.087-.487 1.087-1.087v-2.794c0-.6-.487-1.087-1.087-1.087H2.087c-.6 0-1.087.487-1.087 1.087v2.794zm.931-2.794c0-.086.07-.156.156-.156H4.88c.086 0 .155.07.155.156v2.794c0 .086-.07.155-.155.155H2.087a.155.155 0 0 1-.156-.155v-2.794z" fill="#0093EE"/></svg>