<?xml version="1.0" encoding="UTF-8"?>
<svg width="32px" height="32px" viewBox="0 0 32 32" version="1.1" xmlns="http://www.w3.org/2000/svg" xmlns:xlink="http://www.w3.org/1999/xlink">
    <!-- Generator: sketchtool 51.1 (57501) - http://www.bohemiancoding.com/sketch -->
    <title>C81E1837-3005-44A5-88FB-68A229140A0E</title>
    <desc>Created with sketchtool.</desc>
    <defs></defs>
    <g id="Symbols" stroke="none" stroke-width="1" fill="none" fill-rule="evenodd">
        <g id="Icons-/-ScriptSched-/-32">
            <g id="Icons-/-Folder-/-32">
                <g id="Group-33" transform="translate(5.000000, 1.000000)">
                    <path d="M21,30 L1,30 C0.448,30 0,29.553 0,29 L0,1 C0,0.448 0.448,0 1,0 L21,0 C21.552,0 22,0.448 22,1 L22,29 C22,29.553 21.552,30 21,30 Z" id="Stroke-24" stroke="#0093EE"></path>
                    <path d="M19.878,2 L17.5,2 C17.223,2 17,2.224 17,2.5 L17,4.537 C17,4.813 17.223,5.037 17.5,5.037 L19.878,5.037 C20.154,5.037 20.378,4.813 20.378,4.537 L20.378,2.5 C20.378,2.224 20.154,2 19.878,2 Z M18,4.037 L19.378,4.037 L19.378,3 L18,3 L18,4.037 Z" id="Fill-25" fill="#0093EE"></path>
                    <path d="M19.878,7 L17.5,7 C17.223,7 17,7.224 17,7.5 L17,9.537 C17,9.813 17.223,10.037 17.5,10.037 L19.878,10.037 C20.154,10.037 20.378,9.813 20.378,9.537 L20.378,7.5 C20.378,7.224 20.154,7 19.878,7 Z M18,9.037 L19.378,9.037 L19.378,8 L18,8 L18,9.037 Z" id="Fill-26" fill="#0093EE"></path>
                    <path d="M19.878,11 L17.5,11 C17.223,11 17,11.224 17,11.5 L17,13.537 C17,13.813 17.223,14.037 17.5,14.037 L19.878,14.037 C20.154,14.037 20.378,13.813 20.378,13.537 L20.378,11.5 C20.378,11.224 20.154,11 19.878,11 Z M18,13.037 L19.378,13.037 L19.378,12 L18,12 L18,13.037 Z" id="Fill-27" fill="#0093EE"></path>
                    <path d="M19.878,16 L17.5,16 C17.223,16 17,16.224 17,16.5 L17,18.537 C17,18.813 17.223,19.037 17.5,19.037 L19.878,19.037 C20.154,19.037 20.378,18.813 20.378,18.537 L20.378,16.5 C20.378,16.224 20.154,16 19.878,16 Z M18,18.037 L19.378,18.037 L19.378,17 L18,17 L18,18.037 Z" id="Fill-28" fill="#0093EE"></path>
                    <path d="M19.878,20 L17.5,20 C17.223,20 17,20.224 17,20.5 L17,22.537 C17,22.813 17.223,23.037 17.5,23.037 L19.878,23.037 C20.154,23.037 20.378,22.813 20.378,22.537 L20.378,20.5 C20.378,20.224 20.154,20 19.878,20 Z M18,22.037 L19.378,22.037 L19.378,21 L18,21 L18,22.037 Z" id="Fill-29" fill="#0093EE"></path>
                    <path d="M19.878,25 L17.5,25 C17.223,25 17,25.224 17,25.5 L17,27.537 C17,27.813 17.223,28.037 17.5,28.037 L19.878,28.037 C20.154,28.037 20.378,27.813 20.378,27.537 L20.378,25.5 C20.378,25.224 20.154,25 19.878,25 Z M18,27.037 L19.378,27.037 L19.378,26 L18,26 L18,27.037 Z" id="Fill-30" fill="#0093EE"></path>
                    <path d="M4,22 L13.619,22" id="Stroke-31" stroke="#0093EE"></path>
                    <path d="M4,19 L13.619,19" id="Stroke-32" stroke="#0093EE"></path>
                    <path d="M4,25 L11.214,25" id="Stroke-33" stroke="#0093EE"></path>
                </g>
            </g>
        </g>
    </g>
</svg>