<svg xmlns="http://www.w3.org/2000/svg" width="23" height="18" viewBox="0 0 23 18">
    <g fill="#3F536E" fill-rule="nonzero">
        <path d="M11.265 10.9c-2.77 0-5.163 1.9-5.96 4.6-.33 1.05.422 2.15 1.501 2.15h9.012c1.033 0 1.831-1.1 1.502-2.15-.891-2.7-3.285-4.6-6.055-4.6z"/>
        <ellipse cx="11.265" cy="6.35" rx="2.957" ry="3.15"/>
        <path d="M22.484 10.4c-.704-2.15-2.629-3.75-4.882-3.75-.939 0-1.784.25-2.535.7a4.228 4.228 0 0 1-2.112 2.75 7.221 7.221 0 0 1 3.427 2.05h4.881c.845 0 1.455-.9 1.22-1.75z"/>
        <ellipse cx="17.602" cy="2.95" rx="2.394" ry="2.55"/>
        <path d="M9.576 10.1C8.543 9.55 7.792 8.6 7.51 7.35a4.854 4.854 0 0 0-2.534-.7C2.722 6.65.798 8.2.094 10.4c-.282.85.375 1.75 1.22 1.75h4.882c.892-1 2.065-1.7 3.38-2.05z"/>
        <ellipse cx="4.929" cy="2.95" rx="2.394" ry="2.55"/>
    </g>
</svg>
