<svg width="19" height="20" viewBox="0 0 19 20" xmlns="http://www.w3.org/2000/svg"><title>icon/side nav script/write/active copy 2</title><path d="M0 20h19V0H0v20zm1-1h17V1H1v18zM14.028 5.002h2.605V2.941h-2.605v2.061zm-11.356 0h2.605V2.941H2.672v2.061zm11.356 4.019h2.605V6.96h-2.605v2.061zm-11.356 0h2.605V6.96H2.672v2.061zm11.356 4.02h2.605V10.98h-2.605v2.061zm-11.356 0h2.605V10.98H2.672v2.061zm11.356 4.02h2.605V15h-2.605v2.061zm-11.356 0h2.605V15H2.672v2.061z" fill="#B0B0B0" fill-rule="evenodd"/></svg>