<svg xmlns="http://www.w3.org/2000/svg" width="25" height="25" viewBox="0 0 25 25"><path fill="#98A2AB" fill-rule="evenodd" d="M4.286 17C1.82 16.822 0 14.946 0 12.814c0-2.583 1.999-4.535 4.643-4.535.16 0 .318.01.475.028C5.757 4.67 8.917 2 12.858 2c3.254 0 6.108 2.156 7.114 5.233 2.79 0 5.028 2.186 5.028 4.883 0 2.58-2.048 4.693-4.643 4.872L4.286 17zM18 21a1 1 0 1 1 0-2 1 1 0 0 1 0 2zM8 24a1 1 0 1 1 0-2 1 1 0 0 1 0 2zm2.5-4a.5.5 0 1 1 0-1 .5.5 0 0 1 0 1zm5 4a.5.5 0 1 1 0-1 .5.5 0 0 1 0 1zM4.147 21.148l1.998-2.002a.502.502 0 0 1 .708 0 .498.498 0 0 1 0 .705l-1.998 2.002a.502.502 0 0 1-.708 0 .498.498 0 0 1 0-.705zm8 0l1.998-2.002a.502.502 0 0 1 .708 0 .498.498 0 0 1 0 .705l-1.998 2.002a.502.502 0 0 1-.708 0 .498.498 0 0 1 0-.705z"/></svg>