<svg xmlns="http://www.w3.org/2000/svg" width="25" height="25" viewBox="0 0 25 25"><path fill="#98A2AB" fill-rule="evenodd" d="M4.286 17C1.82 16.822 0 14.946 0 12.814c0-2.583 1.999-4.535 4.643-4.535.16 0 .318.01.475.028C5.757 4.67 8.917 2 12.858 2c3.254 0 6.108 2.156 7.114 5.233 2.79 0 5.028 2.186 5.028 4.883 0 2.58-2.048 4.693-4.643 4.872L4.286 17zM18 24a1 1 0 1 1 0-2 1 1 0 0 1 0 2zm-9 0a1 1 0 1 1 0-2 1 1 0 0 1 0 2zm6-3a1 1 0 1 1 0-2 1 1 0 0 1 0 2zm-9 0a1 1 0 1 1 0-2 1 1 0 0 1 0 2zm13.5-1a.5.5 0 1 1 0-1 .5.5 0 0 1 0 1zm-9 0a.5.5 0 1 1 0-1 .5.5 0 0 1 0 1zm3 4a.5.5 0 1 1 0-1 .5.5 0 0 1 0 1zm-9 0a.5.5 0 1 1 0-1 .5.5 0 0 1 0 1z"/></svg>