<svg xmlns="http://www.w3.org/2000/svg" xmlns:xlink="http://www.w3.org/1999/xlink" width="19" height="20" viewBox="0 0 19 20"><defs><path id="a" d="M0 0h13.05v20H0z"/></defs><g fill="none" fill-rule="evenodd"><mask id="b" fill="#fff"><use xlink:href="#a"/></mask><path fill="#FFF" d="M13.049 1.11c0-.078 0-.157-.008-.235-.036-.395-.23-.678-.604-.813-.372-.136-.698-.043-.977.24-1.919 1.94-3.84 3.878-5.758 5.82a.404.404 0 0 1-.32.13 1302.17 1302.17 0 0 0-4.42-.001c-.585 0-.962.387-.962.975v5.488c0 .66.37 1.035 1.023 1.035 1.468 0 2.935 0 4.402.003a.363.363 0 0 1 .233.09c1.32 1.326 2.636 2.657 3.953 3.987.619.625 1.236 1.253 1.858 1.875.356.355.826.393 1.214.1.278-.21.367-.506.366-.846V1.111z" mask="url(#b)"/><path fill="#FFF" d="M18.197 6.565c-.255-.51-.564-.995-.889-1.463-.237-.34-.614-.424-1.005-.314-.392.11-.636.384-.703.796-.046.29.063.533.225.77 1.208 1.75 1.552 3.637.857 5.68-.197.583-.506 1.11-.843 1.623-.104.158-.194.35-.218.535-.058.451.194.821.619.987a.96.96 0 0 0 1.136-.327c.067-.09.126-.185.188-.278.916-1.374 1.418-2.88 1.432-4.418-.008-1.341-.255-2.506-.799-3.591"/></g></svg>