<svg xmlns="http://www.w3.org/2000/svg" width="48" height="38" viewBox="0 0 48 38">
    <g fill="none" fill-rule="evenodd" stroke-linecap="round">
        <g stroke="#0093EE">
            <path d="M0 19.074h47.902M6.483 15.687v6.555M13.623 15.687v6.555M38.03 14.68v8.628M41.517 16.129v5.709M27.57 13.26v11.496M10.136 12.228V25.73M17.11 9.389v19.377M30.89 12.228V25.73M24.083 9.389v19.377M20.596 7.06v23.857M34.377 10.73v16.638"/>
        </g>
        <path stroke="#A1B1BE" d="M0 19.074h47.902M6.483 15.687v6.555M13.623 15.687v6.555M38.03 14.68v8.628M41.517 16.129v5.709M27.57 13.26v11.496M10.136 12.228V25.73M17.11 9.389v19.377M30.89 12.228V25.73M24.083 9.389v19.377M20.596 7.06v23.857M34.377 10.73v16.638"/>
    </g>
</svg>
