<svg xmlns="http://www.w3.org/2000/svg" width="25" height="25" viewBox="0 0 25 25"><path fill="#0093ee" fill-rule="evenodd" d="M12.5 17a6.5 6.5 0 1 1 0-13 6.5 6.5 0 0 1 0 13zm0-17a.5.5 0 0 1 .5.5v2a.5.5 0 1 1-1 0v-2a.5.5 0 0 1 .5-.5zm0 18a.5.5 0 0 1 .5.5v2a.5.5 0 1 1-1 0v-2a.5.5 0 0 1 .5-.5zM5 10.5a.5.5 0 0 1-.5.5h-2a.5.5 0 1 1 0-1h2a.5.5 0 0 1 .5.5zm18 0a.5.5 0 0 1-.5.5h-2a.5.5 0 1 1 0-1h2a.5.5 0 0 1 .5.5zm-3.075-7.425a.5.5 0 0 1 0 .707L18.51 5.197a.5.5 0 1 1-.707-.707l1.415-1.415a.5.5 0 0 1 .707 0zM7.197 15.803a.5.5 0 0 1 0 .707l-1.415 1.415a.5.5 0 0 1-.707-.707l1.415-1.415a.5.5 0 0 1 .707 0zm0-10.606a.5.5 0 0 1-.707 0L5.075 3.782a.5.5 0 1 1 .707-.707L7.197 4.49a.5.5 0 0 1 0 .707zm12.728 12.728a.5.5 0 0 1-.707 0l-1.415-1.415a.5.5 0 1 1 .707-.707l1.415 1.415a.5.5 0 0 1 0 .707z"/></svg>