<svg xmlns="http://www.w3.org/2000/svg" width="23" height="18" viewBox="0 0 23 18">
    <g fill="none" fill-rule="evenodd" stroke="#62707F" stroke-linecap="round" stroke-linejoin="round">
        <path d="M21.108 12.855l-1.814-.79c-.799-.38-1.474-.641-2.273-1.02-.242-.113-.369-.305-.357-.601a.294.294 0 0 0 0-.042c-.035-.338.05-.62.247-.894.311-.432.511-.94.687-1.457a.795.795 0 0 1 .103-.201c.284-.391.376-.84.312-1.327-.014-.11-.08-.21-.116-.318-.039-.12-.096-.241-.098-.362a50.187 50.187 0 0 1-.003-1.778c.02-1.015-.53-1.991-1.455-2.334a3.545 3.545 0 0 0-1.27-.231 3.545 3.545 0 0 0-1.27.23c-.924.344-1.475 1.32-1.455 2.335.012.592.007 1.185-.003 1.778-.002.12-.059.243-.098.362-.035.108-.102.208-.116.318-.064.488.027.936.312 1.327.043.059.08.13.103.2.176.518.376 1.026.687 1.458.197.274.281.556.247.894a.294.294 0 0 0 0 .042c.011.296-.116.488-.357.602-.8.378-1.474.639-2.273 1.019l-1.814.79s-1.348.66-1.348 3.694h14.77c0-3.033-1.348-3.694-1.348-3.694z"/>
        <path d="M9.15 12.23c-.097-.04-.185-.073-.285-.115-.216-.092-.33-.246-.32-.485a.193.193 0 0 0 0-.034.932.932 0 0 1 .222-.72c.278-.348.458-.757.615-1.174a.593.593 0 0 1 .093-.162c.255-.315.337-.676.28-1.069-.013-.089-.073-.169-.105-.256-.035-.096-.086-.194-.087-.292-.01-.477-.014-.955-.003-1.433a1.928 1.928 0 0 0-1.304-1.88 3.47 3.47 0 0 0-1.138-.186c-.38-.004-.76.06-1.138.186a1.927 1.927 0 0 0-1.305 1.88c.011.478.007.956-.002 1.433-.002.098-.053.196-.087.292-.032.087-.092.167-.105.256-.057.393.025.754.28 1.07.038.046.07.104.092.161.158.417.338.826.616 1.173a.932.932 0 0 1 .222.721c-.002.011 0 .023 0 .034.01.24-.104.393-.32.485-.717.305-1.322.514-2.037.821l-1.626.636S.5 14.105.5 16.55h7.298c0-2.689.753-3.877 1.351-4.32z"/>
    </g>
</svg>
