<svg width="9" height="14" viewBox="0 0 9 14" xmlns="http://www.w3.org/2000/svg" xmlns:xlink="http://www.w3.org/1999/xlink"><title>Lock / Locked</title><defs><path id="a" d="M0 0.6033L8.9998 0.6033 8.9998 8 0 8z"/></defs><g fill="none" fill-rule="evenodd"><g transform="translate(0 6)"><mask id="b" fill="#fff"><use xlink:href="#a"/></mask><path d="M8.094.603c.146.011.27.011.393.033.285.05.465.255.502.556.007.063.01.127.01.191V7.24c0 .19-.002.387-.142.517-.11.101-.253.164-.388.227-.056.026-.13.012-.194.012l-7.553.001c-.177 0-.348-.008-.494-.138C.065 7.714 0 7.525 0 7.306 0 5.308-.001 3.31 0 1.31.004.887.248.632.646.616c.102-.004.205 0 .335 0L8.094.603z" fill="#62707F" mask="url(#b)"/></g><path d="M1.58 1.516A3.43 3.43 0 0 1 3.666.113c1.167-.27 2.257-.064 3.231.71.694.55 1.14 1.29 1.208 2.248.036.496.008.198.01.697v.046H6.948v-.295c-.004-.28.018-.176-.022-.45-.098-.67-.497-1.107-1.024-1.379-1.017-.523-2.028-.492-2.98.2-.502.361-.77.88-.754 1.56.01.387.004 3.129.002 3.557l-1.17-.005c0-.465-.003-3.145.001-3.594.005-.699.183-1.336.577-1.892z" fill="#62707F"/></g></svg>