<svg xmlns="http://www.w3.org/2000/svg" width="22" height="22" viewBox="0 0 22 22"><g fill="#BAB9BA"><path d="M6.692 8.846a1.135 1.135 0 0 0 0 1.627 1.135 1.135 0 0 0 1.627 0l1.535-1.536v6.921c0 .642.504 1.146 1.146 1.146.642 0 1.146-.504 1.146-1.146v-6.92l1.558 1.558a1.135 1.135 0 0 0 1.627 0c.23-.23.344-.527.344-.802 0-.298-.115-.596-.344-.802l-3.529-3.53A1.167 1.167 0 0 0 11 5.02c-.298 0-.596.114-.802.343L6.692 8.846z"/><path d="M.115 11c0 6.004 4.88 10.885 10.885 10.885 6.004 0 10.885-4.88 10.885-10.885C21.885 4.996 17.005.115 11 .115 4.996.115.115 4.995.115 11zm19.479 0A8.597 8.597 0 0 1 11 19.594 8.597 8.597 0 0 1 2.406 11 8.597 8.597 0 0 1 11 2.406 8.597 8.597 0 0 1 19.594 11z"/></g></svg>