<svg xmlns="http://www.w3.org/2000/svg" width="19" height="10" viewBox="0 0 19 10"><path d="M18.892 4.927V.797c0-.04-.012-.081-.02-.149-.494 0-.181.016-.667-.006-.326-.014-.554.065-.775.255-.475.405-.979.79-1.481 1.173a.632.632 0 0 1-.34.112c-.717.009-2.236.007-2.954.002-.172-.001-.248.031-.248.183a728.181 728.181 0 0 1 0 5.119c0 .152.076.184.248.183.718-.005 2.237-.007 2.954.003a.638.638 0 0 1 .34.111c.502.384 1.006.769 1.481 1.174.221.189.45.267.775.254.486-.022.173-.006.666-.006.01-.068.02-.108.02-.148l.001-4.069v-.061zM.8 9.853h9.907c.442 0 .8-.32.8-.714V.714c0-.395-.358-.714-.8-.714H.8C.358 0 0 .32 0 .714v8.425c0 .395.358.714.8.714" fill="#0093EE" fill-rule="evenodd"/></svg>